<?xml version="1.0" encoding="utf-8"?>
<!-- Generator: Adobe Illustrator 23.0.3, SVG Export Plug-In . SVG Version: 6.00 Build 0)  -->
<svg version="1.1" id="Layer_1" xmlns="http://www.w3.org/2000/svg" xmlns:xlink="http://www.w3.org/1999/xlink" x="0px" y="0px"
	 viewBox="0 0 108.3 105.7" style="enable-background:new 0 0 108.3 105.7;" xml:space="preserve">
<style type="text/css">
	.st0{fill:#FF5C06;}
	.st1{fill:#FF8C09;}
	.st2{fill:#FF7607;}
	.st3{clip-path:url(#SVGID_2_);}
	.st4{display:none;}
	.st5{display:inline;fill:#FF5C06;}
</style>
<g>
	<g>
		<path class="st0" d="M-528-70.1v-89.7h92.3v23.1h-64.1v43.6h35.9V-104h-16.7v-22.4h44.9v56.4H-528z"/>
	</g>
	<g>
		<path class="st1" d="M-260-70.1v-60.5l-14.1,24.6h-26.9l-14.1-24.6v60.5h-28.2v-89.7h37.2l18.6,32.6l18.6-32.6h37.2v89.7H-260z"/>
	</g>
	<g>
		<path class="st2" d="M-435.7-98.3v-61.5h28.2v37.2h35.9v-37.2h28.2v61.5h-32.1v28.2h-28.2v-28.2H-435.7z"/>
	</g>
</g>
<path class="st0" d="M64.1,0v37.2H44.2V0H0v77.5h32.1v28.2h44.2V77.5h32.1V0H64.1z M103.3,72.5H71.3v28.2H37.1V72.5H5V5h34.2v37.2
	h29.9V5h34.2V72.5z"/>
<g>
	<defs>
		<path id="SVGID_1_" d="M8,69.5V8h28.2v37.2h35.9V8h28.2v61.5H68.3v28.2H40.1V69.5H8z"/>
	</defs>
	<clipPath id="SVGID_2_">
		<use xlink:href="#SVGID_1_"  style="overflow:visible;"/>
	</clipPath>
	<g class="st3">
		<g>
			
				<rect x="-60.4" y="13.7" transform="matrix(0.7071 -0.7071 0.7071 0.7071 -9.106 6.2453)" class="st0" width="126.9" height="0.7"/>
		</g>
		<g>
			
				<rect x="-57.2" y="15.9" transform="matrix(0.7071 -0.7071 0.7071 0.7071 -9.6899 9.1785)" class="st0" width="126.9" height="0.7"/>
		</g>
		<g>
			
				<rect x="-53.9" y="18.1" transform="matrix(0.7071 -0.7071 0.7071 0.7071 -10.2737 12.1118)" class="st0" width="126.9" height="0.7"/>
		</g>
		<g>
			
				<rect x="-50.7" y="20.3" transform="matrix(0.7071 -0.7071 0.7071 0.7071 -10.8576 15.045)" class="st0" width="126.9" height="0.7"/>
		</g>
		<g>
			
				<rect x="-47.4" y="22.4" transform="matrix(0.7071 -0.7071 0.7071 0.7071 -11.4414 17.9784)" class="st0" width="126.9" height="0.7"/>
		</g>
		<g>
			
				<rect x="-44.2" y="24.6" transform="matrix(0.7071 -0.7071 0.7071 0.7071 -12.0253 20.9114)" class="st0" width="126.9" height="0.7"/>
		</g>
		<g>
			
				<rect x="-40.9" y="26.8" transform="matrix(0.7071 -0.7071 0.7071 0.7071 -12.6091 23.8448)" class="st0" width="126.9" height="0.7"/>
		</g>
		<g>
			
				<rect x="-37.7" y="28.9" transform="matrix(0.7071 -0.7071 0.7071 0.7071 -13.1931 26.7781)" class="st0" width="126.9" height="0.8"/>
		</g>
		<g>
			
				<rect x="-34.5" y="31.1" transform="matrix(0.7071 -0.7071 0.7071 0.7071 -13.777 29.7113)" class="st0" width="126.9" height="0.8"/>
		</g>
		<g>
			
				<rect x="-31.2" y="33.3" transform="matrix(0.7071 -0.7071 0.7071 0.7071 -14.3608 32.6447)" class="st0" width="126.9" height="0.8"/>
		</g>
		<g>
			
				<rect x="-28" y="35.5" transform="matrix(0.7071 -0.7071 0.7071 0.7071 -14.9448 35.5776)" class="st0" width="126.9" height="0.8"/>
		</g>
		<g>
			
				<rect x="-24.7" y="37.6" transform="matrix(0.7071 -0.7071 0.7071 0.7071 -15.5285 38.511)" class="st0" width="126.9" height="0.8"/>
		</g>
		<g>
			
				<rect x="-21.5" y="39.8" transform="matrix(0.7071 -0.7071 0.7071 0.7071 -16.1124 41.4442)" class="st0" width="126.9" height="0.8"/>
		</g>
		<g>
			
				<rect x="-18.2" y="42" transform="matrix(0.7071 -0.7071 0.7071 0.7071 -16.6964 44.3776)" class="st0" width="126.9" height="0.8"/>
		</g>
		<g>
			
				<rect x="-15" y="44.1" transform="matrix(0.7071 -0.7071 0.7071 0.7071 -17.2804 47.3105)" class="st0" width="126.9" height="0.8"/>
		</g>
		<g>
			
				<rect x="-11.7" y="46.3" transform="matrix(0.7071 -0.7071 0.7071 0.7071 -17.8641 50.2439)" class="st0" width="126.9" height="0.8"/>
		</g>
		<g>
			
				<rect x="-8.5" y="48.5" transform="matrix(0.7071 -0.7071 0.7071 0.7071 -18.448 53.1771)" class="st0" width="126.9" height="0.8"/>
		</g>
		<g>
			
				<rect x="-5.2" y="50.7" transform="matrix(0.7071 -0.7071 0.7071 0.7071 -19.0318 56.1105)" class="st0" width="126.9" height="0.8"/>
		</g>
		<g>
			
				<rect x="-2" y="52.8" transform="matrix(0.7071 -0.7071 0.7071 0.7071 -19.6156 59.0439)" class="st0" width="126.9" height="0.8"/>
		</g>
		<g>
			
				<rect x="1.3" y="55" transform="matrix(0.7071 -0.7071 0.7071 0.7071 -20.1996 61.9768)" class="st0" width="126.9" height="0.8"/>
		</g>
		<g>
			
				<rect x="4.5" y="57.2" transform="matrix(0.7071 -0.7071 0.7071 0.7071 -20.7833 64.9102)" class="st0" width="126.9" height="0.8"/>
		</g>
		<g>
			
				<rect x="7.8" y="59.3" transform="matrix(0.7071 -0.7071 0.7071 0.7071 -21.3672 67.8434)" class="st0" width="126.9" height="0.8"/>
		</g>
		<g>
			
				<rect x="11" y="61.5" transform="matrix(0.7071 -0.7071 0.7071 0.7071 -21.9512 70.7769)" class="st0" width="126.9" height="0.8"/>
		</g>
		<g>
			
				<rect x="14.3" y="63.7" transform="matrix(0.7071 -0.7071 0.7071 0.7071 -22.5352 73.7097)" class="st0" width="126.9" height="0.8"/>
		</g>
		<g>
			
				<rect x="17.5" y="65.9" transform="matrix(0.7071 -0.7071 0.7071 0.7071 -23.1189 76.6431)" class="st0" width="126.9" height="0.8"/>
		</g>
		<g>
			
				<rect x="20.8" y="68" transform="matrix(0.7071 -0.7071 0.7071 0.7071 -23.7028 79.5763)" class="st0" width="126.9" height="0.8"/>
		</g>
		<g>
			
				<rect x="24" y="70.2" transform="matrix(0.7071 -0.7071 0.7071 0.7071 -24.2866 82.5097)" class="st0" width="126.9" height="0.8"/>
		</g>
		<g>
			
				<rect x="27.3" y="72.4" transform="matrix(0.7071 -0.7071 0.7071 0.7071 -24.8704 85.4429)" class="st0" width="126.9" height="0.8"/>
		</g>
		<g>
			
				<rect x="30.5" y="74.5" transform="matrix(0.7071 -0.7071 0.7071 0.7071 -25.4545 88.3761)" class="st0" width="126.9" height="0.8"/>
		</g>
	</g>
</g>
<g class="st4">
	<polygon class="st5" points="72.1,24.5 72.1,26.2 90.3,8 88.6,8 	"/>
	<polygon class="st5" points="36.2,35 36.2,33.3 8,61.5 8,63.2 	"/>
	<polygon class="st5" points="72.1,19.1 72.1,20.8 84.9,8 83.2,8 	"/>
	<polygon class="st5" points="72.1,21.8 72.1,23.5 87.6,8 85.9,8 	"/>
	<polygon class="st5" points="36.2,43.1 36.2,41.5 8.1,69.5 9.8,69.5 	"/>
	<polygon class="st5" points="36.2,40.4 36.2,38.8 8,67 8,68.6 	"/>
	<polygon class="st5" points="55.8,45.2 54.2,45.2 29.8,69.5 31.5,69.5 	"/>
	<polygon class="st5" points="36.2,37.7 36.2,36 8,64.2 8,65.9 	"/>
	<polygon class="st5" points="72.1,16.4 72.1,18.1 82.2,8 80.5,8 	"/>
	<polygon class="st5" points="95.7,8 94.1,8 72.1,30 72.1,31.6 	"/>
	<polygon class="st5" points="45,45.2 43.3,45.2 19,69.5 20.6,69.5 	"/>
	<polygon class="st5" points="72.1,13.7 72.1,15.3 79.4,8 77.8,8 	"/>
	<polygon class="st5" points="50.4,45.2 48.7,45.2 24.4,69.5 26,69.5 	"/>
	<polygon class="st5" points="42.3,45.2 40.6,45.2 16.3,69.5 17.9,69.5 	"/>
	<polygon class="st5" points="53.1,45.2 51.5,45.2 27.1,69.5 28.7,69.5 	"/>
	<polygon class="st5" points="47.7,45.2 46,45.2 21.7,69.5 23.3,69.5 	"/>
	<polygon class="st5" points="39.6,45.2 37.9,45.2 13.5,69.5 15.2,69.5 	"/>
	<polygon class="st5" points="72.1,11 72.1,12.6 76.7,8 75.1,8 	"/>
	<polygon class="st5" points="72.1,8.3 72.1,9.9 74,8 72.4,8 	"/>
	<polygon class="st5" points="36.8,45.2 36.2,45.2 36.2,44.2 10.8,69.5 12.5,69.5 	"/>
	<polygon class="st5" points="72.1,27.2 72.1,28.9 93,8 91.3,8 	"/>
	<polygon class="st5" points="30.7,8 29,8 8,29 8,30.7 	"/>
	<polygon class="st5" points="25.2,8 23.6,8 8,23.6 8,25.2 	"/>
	<polygon class="st5" points="19.8,8 18.2,8 8,18.2 8,19.8 	"/>
	<polygon class="st5" points="28,8 26.3,8 8,26.3 8,28 	"/>
	<polygon class="st5" points="22.5,8 20.9,8 8,20.9 8,22.5 	"/>
	<polygon class="st5" points="68.3,69.5 69.4,69.5 100.3,38.6 100.3,37 40.1,97.2 40.1,97.7 41.2,97.7 68.3,70.7 	"/>
	<polygon class="st5" points="14.4,8 12.8,8 8,12.8 8,14.4 	"/>
	<polygon class="st5" points="8,10 8,11.7 11.7,8 10,8 	"/>
	<polygon class="st5" points="17.1,8 15.5,8 8,15.5 8,17.1 	"/>
	<polygon class="st5" points="36.1,8 34.4,8 8,34.4 8,36.1 	"/>
	<polygon class="st5" points="36.2,26.8 36.2,25.2 8,53.4 8,55.1 	"/>
	<polygon class="st5" points="36.2,24.1 36.2,22.5 8,50.7 8,52.3 	"/>
	<polygon class="st5" points="36.2,21.4 36.2,19.8 8,48 8,49.6 	"/>
	<polygon class="st5" points="33.4,8 31.7,8 8,31.7 8,33.4 	"/>
	<polygon class="st5" points="36.2,29.6 36.2,27.9 8,56.1 8,57.8 	"/>
	<polygon class="st5" points="36.2,32.3 36.2,30.6 8,58.8 8,60.5 	"/>
	<polygon class="st5" points="36.2,10.6 36.2,8.9 8,37.1 8,38.8 	"/>
	<polygon class="st5" points="36.2,16 36.2,14.4 8,42.6 8,44.2 	"/>
	<polygon class="st5" points="36.2,13.3 36.2,11.6 8,39.9 8,41.5 	"/>
	<polygon class="st5" points="36.2,18.7 36.2,17.1 8,45.3 8,46.9 	"/>
	<polygon class="st5" points="68.3,76.1 68.3,74.5 45,97.7 46.6,97.7 	"/>
	<polygon class="st5" points="68.3,73.4 68.3,71.7 42.3,97.7 43.9,97.7 	"/>
	<polygon class="st5" points="68.3,78.8 68.3,77.2 47.7,97.7 49.3,97.7 	"/>
	<polygon class="st5" points="68.3,81.5 68.3,79.9 50.4,97.7 52,97.7 	"/>
	<polygon class="st5" points="68.3,84.2 68.3,82.6 53.1,97.7 54.7,97.7 	"/>
	<polygon class="st5" points="68.3,86.9 68.3,85.3 55.8,97.7 57.5,97.7 	"/>
	<polygon class="st5" points="70.5,69.5 72.1,69.5 100.3,41.3 100.3,39.7 	"/>
	<polygon class="st5" points="75.9,69.5 77.5,69.5 100.3,46.8 100.3,45.1 	"/>
	<polygon class="st5" points="78.6,69.5 80.2,69.5 100.3,49.5 100.3,47.8 	"/>
	<polygon class="st5" points="73.2,69.5 74.8,69.5 100.3,44.1 100.3,42.4 	"/>
	<polygon class="st5" points="100.3,64.1 94.9,69.5 96.5,69.5 100.3,65.7 	"/>
	<polygon class="st5" points="72.1,32.7 72.1,34.3 98.4,8.1 98.9,8.6 72.1,35.4 72.1,37 100,9.1 100.3,9.5 100.3,8 96.8,8 	"/>
	<polygon class="st5" points="9,8 8,8 8,9 	"/>
	<polygon class="st5" points="100.3,69.5 100.3,69.5 100.3,69.5 	"/>
	<polygon class="st5" points="100.3,68.4 100.3,66.8 97.6,69.5 99.2,69.5 	"/>
	<polygon class="st5" points="68.3,96.1 66.6,97.7 68.3,97.7 	"/>
	<polygon class="st5" points="68.3,92.4 68.3,90.7 61.2,97.7 62.9,97.7 	"/>
	<polygon class="st5" points="68.3,95.1 68.3,93.4 63.9,97.7 65.6,97.7 	"/>
	<polygon class="st5" points="68.3,89.7 68.3,88 58.5,97.7 60.2,97.7 	"/>
	<polygon class="st5" points="81.3,69.5 82.9,69.5 100.3,52.2 100.3,50.5 	"/>
	<polygon class="st5" points="100.3,19.7 100.3,18 40.1,78.3 40.1,79.9 	"/>
	<polygon class="st5" points="69.4,45.2 67.7,45.2 40.1,72.8 40.1,74.5 	"/>
	<polygon class="st5" points="72.1,38.1 72.1,39.7 100.3,11.5 100.3,9.9 	"/>
	<polygon class="st5" points="100.3,16.9 100.3,15.3 72.1,43.5 72.1,45.2 	"/>
	<polygon class="st5" points="58.5,45.2 56.9,45.2 32.5,69.5 34.2,69.5 	"/>
	<polygon class="st5" points="72.1,45.2 70.4,45.2 40.1,75.6 40.1,77.2 	"/>
	<polygon class="st5" points="72.1,40.8 72.1,42.4 100.3,14.2 100.3,12.6 	"/>
	<polygon class="st5" points="84,69.5 85.7,69.5 100.3,54.9 100.3,53.2 	"/>
	<polygon class="st5" points="63.9,45.2 62.3,45.2 37.9,69.5 39.6,69.5 	"/>
	<polygon class="st5" points="66.7,45.2 65,45.2 40.1,70.1 40.1,71.8 	"/>
	<polygon class="st5" points="61.2,45.2 59.6,45.2 35.2,69.5 36.9,69.5 	"/>
	<polygon class="st5" points="100.3,35.9 100.3,34.3 40.1,94.5 40.1,96.2 	"/>
	<polygon class="st5" points="100.3,63 100.3,61.4 92.1,69.5 93.8,69.5 	"/>
	<polygon class="st5" points="89.4,69.5 91.1,69.5 100.3,60.3 100.3,58.7 	"/>
	<polygon class="st5" points="86.7,69.5 88.4,69.5 100.3,57.6 100.3,56 	"/>
	<polygon class="st5" points="100.3,27.8 100.3,26.1 40.1,86.4 40.1,88 	"/>
	<polygon class="st5" points="100.3,22.4 100.3,20.7 40.1,81 40.1,82.6 	"/>
	<polygon class="st5" points="100.3,25.1 100.3,23.4 40.1,83.7 40.1,85.3 	"/>
	<polygon class="st5" points="100.3,30.5 100.3,28.9 40.1,89.1 40.1,90.8 	"/>
	<polygon class="st5" points="100.3,33.2 100.3,31.6 40.1,91.8 40.1,93.5 	"/>
</g>
<g>
	<path class="st0" d="M-324.1,35.8v-61.5h28.2v37.2h35.9v-37.2h28.2v61.5h-32.1V64h-28.2V35.8H-324.1z"/>
</g>
</svg>
