<?xml version="1.0" encoding="utf-8"?>
<!-- Generator: Adobe Illustrator 23.0.3, SVG Export Plug-In . SVG Version: 6.00 Build 0)  -->
<svg version="1.1" id="Layer_1" xmlns="http://www.w3.org/2000/svg" xmlns:xlink="http://www.w3.org/1999/xlink" x="0px" y="0px"
	 viewBox="0 0 97.3 84.8" style="enable-background:new 0 0 97.3 84.8;" xml:space="preserve">
<style type="text/css">
	.st0{fill:#FF5C06;}
	.st1{fill:#FF8C09;}
	.st2{fill:#FF7607;}
	.st3{clip-path:url(#SVGID_2_);}
	.st4{display:none;}
	.st5{display:inline;fill:#FF5C06;}
	.st6{fill:none;stroke:#FF00FF;stroke-width:0.25;stroke-miterlimit:10;}
	.st7{fill:none;stroke:#00FF00;stroke-width:0.25;stroke-miterlimit:10;}
	.st8{opacity:0.5;}
	.st9{fill:#9B27B0;}
	.st10{fill:none;stroke:#9B27B0;stroke-width:2;stroke-miterlimit:10;}
	.st11{fill:none;stroke:#FF5C06;stroke-width:0.25;stroke-miterlimit:10;}
	.st12{fill:none;stroke:#9B27B0;stroke-miterlimit:10;}
</style>
<g class="st4">
	<polygon class="st5" points="66.6,14.1 66.6,15.7 84.8,-2.5 83.1,-2.5 	"/>
	<polygon class="st5" points="30.7,24.5 30.7,22.9 2.5,51.1 2.5,52.7 	"/>
	<polygon class="st5" points="66.6,8.6 66.6,10.3 79.3,-2.5 77.7,-2.5 	"/>
	<polygon class="st5" points="66.6,11.4 66.6,13 82.1,-2.5 80.4,-2.5 	"/>
	<polygon class="st5" points="30.7,32.6 30.7,31 2.6,59.1 4.3,59.1 	"/>
	<polygon class="st5" points="30.7,29.9 30.7,28.3 2.5,56.5 2.5,58.1 	"/>
	<polygon class="st5" points="50.3,34.7 48.7,34.7 24.3,59.1 25.9,59.1 	"/>
	<polygon class="st5" points="30.7,27.2 30.7,25.6 2.5,53.8 2.5,55.4 	"/>
	<polygon class="st5" points="66.6,5.9 66.6,7.6 76.6,-2.5 75,-2.5 	"/>
	<polygon class="st5" points="90.2,-2.5 88.5,-2.5 66.6,19.5 66.6,21.1 	"/>
	<polygon class="st5" points="39.5,34.7 37.8,34.7 13.5,59.1 15.1,59.1 	"/>
	<polygon class="st5" points="66.6,3.2 66.6,4.9 73.9,-2.5 72.3,-2.5 	"/>
	<polygon class="st5" points="44.9,34.7 43.2,34.7 18.9,59.1 20.5,59.1 	"/>
	<polygon class="st5" points="36.8,34.7 35.1,34.7 10.7,59.1 12.4,59.1 	"/>
	<polygon class="st5" points="47.6,34.7 45.9,34.7 21.6,59.1 23.2,59.1 	"/>
	<polygon class="st5" points="42.2,34.7 40.5,34.7 16.2,59.1 17.8,59.1 	"/>
	<polygon class="st5" points="34,34.7 32.4,34.7 8,59.1 9.7,59.1 	"/>
	<polygon class="st5" points="66.6,0.5 66.6,2.2 71.2,-2.5 69.6,-2.5 	"/>
	<polygon class="st5" points="31.3,34.7 30.7,34.7 30.7,33.7 5.3,59.1 7,59.1 	"/>
	<polygon class="st5" points="66.6,16.8 66.6,18.4 87.5,-2.5 85.8,-2.5 	"/>
	<polygon class="st5" points="25.1,-2.5 23.5,-2.5 2.5,18.5 2.5,20.2 	"/>
	<polygon class="st5" points="19.7,-2.5 18.1,-2.5 2.5,13.1 2.5,14.8 	"/>
	<polygon class="st5" points="14.3,-2.5 12.7,-2.5 2.5,7.7 2.5,9.4 	"/>
	<polygon class="st5" points="22.4,-2.5 20.8,-2.5 2.5,15.8 2.5,17.5 	"/>
	<polygon class="st5" points="17,-2.5 15.4,-2.5 2.5,10.4 2.5,12.1 	"/>
	<polygon class="st5" points="62.7,59.1 63.9,59.1 94.8,28.2 94.8,26.5 34.5,86.8 34.5,87.3 35.7,87.3 62.7,60.2 	"/>
	<polygon class="st5" points="8.9,-2.5 7.2,-2.5 2.5,2.3 2.5,3.9 	"/>
	<polygon class="st5" points="2.5,-0.4 2.5,1.2 6.2,-2.5 4.5,-2.5 	"/>
	<polygon class="st5" points="11.6,-2.5 9.9,-2.5 2.5,5 2.5,6.6 	"/>
	<polygon class="st5" points="30.6,-2.5 28.9,-2.5 2.5,24 2.5,25.6 	"/>
	<polygon class="st5" points="30.7,16.4 30.7,14.7 2.5,42.9 2.5,44.6 	"/>
	<polygon class="st5" points="30.7,13.7 30.7,12 2.5,40.2 2.5,41.9 	"/>
	<polygon class="st5" points="30.7,11 30.7,9.3 2.5,37.5 2.5,39.2 	"/>
	<polygon class="st5" points="27.9,-2.5 26.2,-2.5 2.5,21.3 2.5,22.9 	"/>
	<polygon class="st5" points="30.7,19.1 30.7,17.4 2.5,45.6 2.5,47.3 	"/>
	<polygon class="st5" points="30.7,21.8 30.7,20.2 2.5,48.4 2.5,50 	"/>
	<polygon class="st5" points="30.7,0.1 30.7,-1.5 2.5,26.7 2.5,28.3 	"/>
	<polygon class="st5" points="30.7,5.5 30.7,3.9 2.5,32.1 2.5,33.7 	"/>
	<polygon class="st5" points="30.7,2.8 30.7,1.2 2.5,29.4 2.5,31 	"/>
	<polygon class="st5" points="30.7,8.2 30.7,6.6 2.5,34.8 2.5,36.5 	"/>
	<polygon class="st5" points="62.7,65.6 62.7,64 39.4,87.3 41.1,87.3 	"/>
	<polygon class="st5" points="62.7,62.9 62.7,61.3 36.7,87.3 38.4,87.3 	"/>
	<polygon class="st5" points="62.7,68.3 62.7,66.7 42.2,87.3 43.8,87.3 	"/>
	<polygon class="st5" points="62.7,71.1 62.7,69.4 44.9,87.3 46.5,87.3 	"/>
	<polygon class="st5" points="62.7,73.8 62.7,72.1 47.6,87.3 49.2,87.3 	"/>
	<polygon class="st5" points="62.7,76.5 62.7,74.8 50.3,87.3 51.9,87.3 	"/>
	<polygon class="st5" points="64.9,59.1 66.6,59.1 94.8,30.9 94.8,29.2 	"/>
	<polygon class="st5" points="70.4,59.1 72,59.1 94.8,36.3 94.8,34.6 	"/>
	<polygon class="st5" points="73.1,59.1 74.7,59.1 94.8,39 94.8,37.4 	"/>
	<polygon class="st5" points="67.7,59.1 69.3,59.1 94.8,33.6 94.8,31.9 	"/>
	<polygon class="st5" points="94.8,53.6 89.3,59.1 91,59.1 94.8,55.3 	"/>
	<polygon class="st5" points="66.6,22.2 66.6,23.8 92.8,-2.4 93.4,-1.9 66.6,24.9 66.6,26.6 94.5,-1.3 94.8,-1 94.8,-2.5 91.3,-2.5 
			"/>
	<polygon class="st5" points="94.8,59.1 94.8,59.1 94.8,59 	"/>
	<polygon class="st5" points="94.8,58 94.8,56.3 92,59.1 93.7,59.1 	"/>
	<polygon class="st5" points="62.7,81.9 62.7,80.2 55.7,87.3 57.4,87.3 	"/>
	<polygon class="st5" points="62.7,84.6 62.7,83 58.4,87.3 60.1,87.3 	"/>
	<polygon class="st5" points="62.7,79.2 62.7,77.5 53,87.3 54.6,87.3 	"/>
	<polygon class="st5" points="75.8,59.1 77.4,59.1 94.8,41.7 94.8,40.1 	"/>
	<polygon class="st5" points="94.8,9.2 94.8,7.5 34.5,67.8 34.5,69.4 	"/>
	<polygon class="st5" points="63.9,34.7 62.2,34.7 34.5,62.4 34.5,64 	"/>
	<polygon class="st5" points="66.6,27.6 66.6,29.3 94.8,1.1 94.8,-0.6 	"/>
	<polygon class="st5" points="94.8,6.5 94.8,4.8 66.6,33 66.6,34.7 	"/>
	<polygon class="st5" points="53,34.7 51.4,34.7 27,59.1 28.7,59.1 	"/>
	<polygon class="st5" points="66.6,34.7 64.9,34.7 34.5,65.1 34.5,66.7 	"/>
	<polygon class="st5" points="66.6,30.3 66.6,32 94.8,3.8 94.8,2.1 	"/>
	<polygon class="st5" points="78.5,59.1 80.1,59.1 94.8,44.4 94.8,42.8 	"/>
	<polygon class="st5" points="58.4,34.7 56.8,34.7 32.4,59.1 34.1,59.1 	"/>
	<polygon class="st5" points="61.1,34.7 59.5,34.7 34.5,59.7 34.5,61.3 	"/>
	<polygon class="st5" points="55.7,34.7 54.1,34.7 29.7,59.1 31.4,59.1 	"/>
	<polygon class="st5" points="94.8,25.5 94.8,23.8 34.5,84.1 34.5,85.7 	"/>
	<polygon class="st5" points="94.8,52.6 94.8,50.9 86.6,59.1 88.3,59.1 	"/>
	<polygon class="st5" points="83.9,59.1 85.6,59.1 94.8,49.8 94.8,48.2 	"/>
	<polygon class="st5" points="81.2,59.1 82.9,59.1 94.8,47.1 94.8,45.5 	"/>
	<polygon class="st5" points="94.8,17.3 94.8,15.7 34.5,75.9 34.5,77.6 	"/>
	<polygon class="st5" points="94.8,11.9 94.8,10.2 34.5,70.5 34.5,72.2 	"/>
	<polygon class="st5" points="94.8,14.6 94.8,13 34.5,73.2 34.5,74.9 	"/>
	<polygon class="st5" points="94.8,20 94.8,18.4 34.5,78.6 34.5,80.3 	"/>
	<polygon class="st5" points="94.8,22.7 94.8,21.1 34.5,81.3 34.5,83 	"/>
</g>
<g>
	<g>
		<path class="st0" d="M75.9,42.4l-0.1-0.1l0.1-0.1L57.8,11.1v-0.1h0H39.6l0,0l0,0h0h0V11L12.3,57.9l0.1,0.1L12.3,58l9,15.6l0.1-0.1
			l0,0.1l54.3,0.2v-0.1l0.1-0.1l-9-15.6l0.1,0L75.9,42.4z M48.6,27.1l17.8,30.8H30.7L48.6,27.1z"/>
	</g>
	<g class="st8">
		<g>
			<rect x="56.5" y="-3.7" transform="matrix(0.865 -0.5017 0.5017 0.865 -13.5067 34.5922)" class="st9" width="2" height="92.2"/>
		</g>
		<g>
			<rect x="70.7" y="-2.6" transform="matrix(0.865 -0.5017 0.5017 0.865 -8.0416 40.7437)" class="st9" width="2" height="75.8"/>
		</g>
		<g>
			<rect x="29.8" y="10" class="st9" width="37.6" height="2"/>
		</g>
		<g>
			<rect x="2.8" y="57" class="st9" width="91.6" height="2"/>
		</g>
		<g>
			
				<rect x="53.1" y="48.8" transform="matrix(0.5007 -0.8656 0.8656 0.5007 -7.3902 86.7131)" class="st9" width="36.7" height="2"/>
		</g>
		<g>
			<rect x="61.4" y="65" transform="matrix(0.4992 -0.8665 0.8665 0.4992 -17.0558 102.513)" class="st9" width="37.5" height="2"/>
		</g>
		<g>
			
				<rect x="-6.4" y="41.4" transform="matrix(0.5014 -0.8652 0.8652 0.5014 -16.9229 55.436)" class="st9" width="92.2" height="2"/>
		</g>
		<g>
			
				<rect x="-12.4" y="34.3" transform="matrix(0.5018 -0.865 0.865 0.5018 -17.8572 39.6326)" class="st9" width="75.8" height="2"/>
		</g>
		<g>
			<rect x="29.8" y="10" class="st9" width="37.6" height="2"/>
		</g>
		<g>
			<rect x="20.8" y="25.8" class="st9" width="55.6" height="2"/>
		</g>
		<g>
			
				<rect x="47.7" y="32.9" transform="matrix(2.448230e-03 -1 1 2.448230e-03 -25.0597 122.2094)" class="st9" width="2" height="81.6"/>
		</g>
		<g>
			
				<rect x="24.7" y="31.4" transform="matrix(0.8657 -0.5006 0.5006 0.8657 -21.4566 19.5551)" class="st9" width="2" height="36.7"/>
		</g>
		<g>
			<rect x="16" y="47.3" transform="matrix(0.8666 -0.499 0.499 0.8666 -30.6675 17.3033)" class="st9" width="2" height="37.5"/>
		</g>
	</g>
</g>
</svg>
